<?xml version="1.0" standalone="no"?>
<!DOCTYPE svg PUBLIC "-//W3C//DTD SVG 20010904//EN"
 "http://www.w3.org/TR/2001/REC-SVG-20010904/DTD/svg10.dtd">
<svg version="1.0" xmlns="http://www.w3.org/2000/svg"
 width="35.000000pt" height="35.000000pt" viewBox="0 0 35.000000 35.000000"
 preserveAspectRatio="xMidYMid meet">

<g transform="translate(0.000000,35.000000) scale(0.100000,-0.100000)"
fill="#000000" stroke="none">
<path d="M180 276 c0 -49 5 -70 23 -97 21 -32 80 -79 98 -79 23 0 4 38 -31 62
-42 29 -60 71 -60 141 0 26 -4 37 -15 37 -12 0 -15 -14 -15 -64z"/>
<path d="M82 318 c-7 -7 -12 -27 -12 -45 0 -23 -8 -41 -25 -57 -24 -22 -34
-56 -17 -56 19 0 55 35 68 66 25 59 15 121 -14 92z"/>
<path d="M127 313 c-4 -3 -7 -27 -7 -53 0 -55 -20 -86 -74 -115 -34 -19 -46
-50 -19 -50 25 0 105 67 119 100 18 45 19 125 1 125 -8 0 -17 -3 -20 -7z"/>
<path d="M230 273 c0 -40 20 -74 59 -100 41 -28 51 -29 51 -5 0 10 -13 26 -30
35 -17 10 -32 30 -36 45 -10 47 -13 52 -29 52 -10 0 -15 -9 -15 -27z"/>
<path d="M93 109 c-41 -22 -53 -41 -34 -54 6 -3 25 4 43 15 44 27 92 25 144
-5 36 -21 44 -22 54 -10 9 11 3 19 -32 41 -59 37 -120 42 -175 13z"/>
<path d="M103 49 c-53 -34 -21 -54 37 -24 23 12 34 13 54 4 14 -7 33 -8 43 -5
17 7 16 9 -6 27 -31 25 -87 24 -128 -2z"/>
</g>
</svg>
